<svg id="レイヤー_1" data-name="レイヤー 1" xmlns="http://www.w3.org/2000/svg" viewBox="0 0 86 14"><defs><style>.cls-1{fill:#ff3b62;fill-rule:evenodd;}</style></defs><path class="cls-1" d="M79.15.24a6.47,6.47,0,0,0-6.37,5.5H49.49a6.44,6.44,0,0,0-12.75,0H13.46a6.5,6.5,0,1,0,0,2H36.74a6.44,6.44,0,0,0,12.75,0H72.78A6.46,6.46,0,1,0,79.15.24Zm-72.07,11a4.5,4.5,0,1,1,4.47-4.5A4.49,4.49,0,0,1,7.08,11.24Zm36,0a4.5,4.5,0,1,1,4.47-4.5A4.5,4.5,0,0,1,43.12,11.24Zm36,0a4.5,4.5,0,1,1,4.48-4.5A4.49,4.49,0,0,1,79.15,11.24Z"/></svg>